<svg width="1200" height="760" viewBox="0 0 1200 760" fill="none" xmlns="http://www.w3.org/2000/svg"><rect width="1200" height="760" fill="#10241D"/><path d="M0 80H1200M0 200H1200M0 320H1200M0 440H1200M0 560H1200M0 680H1200M120 0V760M300 0V760M480 0V760M660 0V760M840 0V760M1020 0V760" stroke="white" stroke-opacity=".08"/><rect x="100" y="94" width="1000" height="572" fill="#151515" stroke="white" stroke-opacity=".16"/><rect x="150" y="150" width="420" height="310" fill="#1F3D31" stroke="#61DAFB" stroke-opacity=".45"/><rect x="610" y="150" width="340" height="72" fill="#C1121F" fill-opacity=".35"/><rect x="610" y="254" width="390" height="48" fill="white" fill-opacity=".1"/><rect x="610" y="330" width="300" height="48" fill="white" fill-opacity=".08"/><rect x="150" y="500" width="850" height="80" fill="white" fill-opacity=".08"/><text x="150" y="625" fill="#fff" font-family="Inter,Arial" font-size="52" font-weight="800">CampusHUB</text><text x="150" y="665" fill="#D7D7D7" font-family="Inter,Arial" font-size="24">Student ecosystem placeholder</text></svg>
