<svg width="1200" height="760" viewBox="0 0 1200 760" fill="none" xmlns="http://www.w3.org/2000/svg"><rect width="1200" height="760" fill="#0F2638"/><path d="M0 120H1200M0 260H1200M0 400H1200M0 540H1200M200 0V760M400 0V760M600 0V760M800 0V760M1000 0V760" stroke="white" stroke-opacity=".08"/><rect x="130" y="110" width="940" height="540" rx="0" fill="#101010" stroke="#61DAFB" stroke-opacity=".35"/><circle cx="250" cy="250" r="80" fill="#61DAFB" fill-opacity=".24"/><path d="M220 250L310 205L285 305L260 270L220 250Z" fill="#61DAFB"/><rect x="430" y="180" width="470" height="64" fill="white" fill-opacity=".1"/><rect x="430" y="280" width="360" height="64" fill="#C1121F" fill-opacity=".35"/><rect x="430" y="380" width="420" height="64" fill="white" fill-opacity=".08"/><text x="160" y="600" fill="#fff" font-family="Inter,Arial" font-size="48" font-weight="800">Telegram Automation Platform</text></svg>
